<?xml version="1.0" encoding="utf-8"?>
<!-- Generator: Adobe Illustrator 21.0.0, SVG Export Plug-In . SVG Version: 6.00 Build 0)  -->
<svg version="1.1" id="Capa_1" xmlns="http://www.w3.org/2000/svg" xmlns:xlink="http://www.w3.org/1999/xlink" x="0px" y="0px"
	 viewBox="0 0 435 435" style="enable-background:new 0 0 435 435;" xml:space="preserve">
<style type="text/css">
	.st0{fill:#D80027;}
	.st1{fill:#FFFFFF;}
	.st2{fill:#0052B4;}
	.st3{fill:#8BC0E8;}
	.st4{fill:#0061C1;}
	.st5{fill:#041949;}
	.st6{display:none;}
</style>
<g id="RU">
	<rect x="265" y="122.3" class="st0" width="166" height="36.7"/>
	<rect x="265" y="49" class="st1" width="166" height="36.7"/>
	<rect x="265" y="85.7" class="st2" width="166" height="36.7"/>
</g>
<g>
	<polygon class="st3" points="196,321 144.5,321 144.5,305.5 130.3,305.3 130.3,321 76,321 77.7,220 64.7,233.7 38,206.7 
		78.7,170.7 219.7,167.3 219.7,206 197,206 	"/>
	<ellipse class="st4" cx="136" cy="135.2" rx="50.7" ry="50.8"/>
	<rect x="79.5" y="323.5" class="st0" width="45.5" height="13.5"/>
	<rect x="148" y="323.5" class="st0" width="45.5" height="13.5"/>
	
		<rect x="18.8" y="214.9" transform="matrix(0.7071 -0.7071 0.7071 0.7071 -154.4452 95.4535)" class="st4" width="38.4" height="38.4"/>
	<rect x="217.5" y="168.9" class="st4" width="38.4" height="38.4"/>
	<rect x="125" y="208.3" class="st1" width="21.3" height="36.5"/>
	<path class="st0" d="M149.3,215.5l-3.8-6.3L125,209l-0.5,8.5L98.7,216c-4.3-0.3-7.7-3.8-7.7-8.1v-38.6l13.2-0.3l20.2,10.4l28.1,0.1
		l13-10.3v30C165.5,208.2,158.2,215.5,149.3,215.5z"/>
	<path class="st5" d="M136,174.8c21.2,0,38.5-16.9,38.5-37.6c0-19-14.8-30.7-38.5-30.7c-23.8,0-38.5,11.8-38.5,30.7
		C97.4,157.9,114.7,174.8,136,174.8z"/>
	<path d="M136,174.8c21.2,0,38.5-16.9,38.5-37.6c0-19-14.8-30.7-38.5-30.7c-23.8,0-38.5,11.8-38.5,30.7
		C97.4,157.9,114.7,174.8,136,174.8z M136,114.5c27.6,0,30.5,15.9,30.5,22.7c0,16.3-13.7,29.6-30.5,29.6s-30.5-13.3-30.5-29.6
		C105.4,130.4,108.4,114.5,136,114.5z"/>
	<path d="M431,42.7H264c-2.2,0-4,1.8-4,4v118.9c-1.3-0.2-2.5-0.3-3.9-0.3h-79.4c6.2-8.4,9.9-18.8,9.9-30.1c0-28-22.8-50.7-50.7-50.7
		c-28,0-50.7,22.8-50.7,50.7c0,11.3,3.7,21.7,9.9,30.1H89c-9,0-17.8,3.6-24.2,10L6.5,233.6c-8.7,8.7-8.7,22.9,0,31.6
		c4.2,4.2,9.8,6.6,15.8,6.6c6,0,11.6-2.3,15.8-6.6l34.7-34.7v123.3C63.4,355,56,363.2,56,373.1v15.3c0,2.2,1.8,4,4,4h66.1
		c2.1,0,3.9-1.7,4-3.8l4.1-80.2h4.7l4.1,80.2c0.1,2.1,1.9,3.8,4,3.8h65c2.2,0,4-1.8,4-4v-15.3c0-9.3-6.6-17.1-15.4-19V210h56
		c1.2,0,2.3-0.1,3.4-0.3v178.6c0,2.2,1.8,4,4,4s4-1.8,4-4V206.9c1.7-1,3.3-2.3,4.7-3.7c4.3-4.4,6.5-10.2,6.2-16.3
		c-0.3-7.7-4.6-14.4-10.9-18.2v-5.2h163c2.2,0,4-1.8,4-4V46.7C435,44.5,433.2,42.7,431,42.7z M252.1,202h-30v-28.7h30V202z
		 M151.4,207.7c-0.6-1.6-2-2.7-3.8-2.7h-23.3c-2.2,0-4,1.8-4,4v4.3h-16.1c-5.2,0-9.4-4.2-9.4-9.4v-30.7h7.8
		c8.9,7.8,20.6,12.6,33.4,12.6c9.4,0,18.3-2.6,25.8-7.1v19.8c0,5-4.1,9.1-9.1,9.1H151.4z M147.9,327.7h44.7v6.7h-44.3L147.9,327.7z
		 M192.6,266.3c-6.9-0.1-12.4-5.7-12.4-12.7c0-11.4-9.3-20.7-20.7-20.7h-7.8v-4.6h40.9L192.6,266.3L192.6,266.3z M143.6,213v28.7
		h-15.3V213H143.6z M136,92.5c23.6,0,42.7,19.2,42.7,42.7c0,23.6-19.2,42.7-42.7,42.7s-42.7-19.2-42.7-42.7
		C93.2,111.6,112.4,92.5,136,92.5z M35.3,256.8L15,236.4l22.3-22.3l20.3,20.3L35.3,256.8z M12.2,259.6C7.6,255,6.8,248,9.8,242.5
		L29.3,262c-2.1,1.2-4.5,1.8-6.9,1.8C18.5,263.8,14.9,262.3,12.2,259.6z M63.3,228.8L43,208.4L70.5,181c4.3-4.3,10.2-7,16.3-7.6
		v30.6c0,9.6,7.8,17.4,17.4,17.4h16.1v24.3c0,2.2,1.8,4,4,4h23.3c2.2,0,4-1.8,4-4V241h7.8c7,0,12.7,5.7,12.7,12.7
		c0,11.3,9.1,20.5,20.4,20.7v6.7H80.9v-42.7h1.6c6.3,0,11.3,5.1,11.3,11.3c0,10.7,8.7,19.3,19.3,19.3h11.5c1.7,4.7,6.1,8,11.3,8
		c6.6,0,12-5.4,12-12s-5.4-12-12-12c-5.2,0-9.6,3.3-11.3,8h-11.5c-6.2,0-11.3-5.1-11.3-11.3c0-10.7-8.7-19.3-19.3-19.3h-1.6v-9.4
		c0-1.6-1-3.1-2.5-3.7s-3.2-0.3-4.4,0.9L63.3,228.8z M124.8,334.3h-44v-6.7h44.3L124.8,334.3z M132,265c0-2.2,1.8-4,4-4s4,1.8,4,4
		s-1.8,4-4,4S132,267.2,132,265z M75.3,361.7h22.2c2.2,0,4-1.8,4-4s-1.8-4-4-4H80.9v-11.3h43.6l-1.5,29.3H64.1
		C64.7,366.1,69.5,361.7,75.3,361.7z M88.7,379.7v4.7H79v-4.7H88.7z M96.7,379.7h9.7v4.7h-9.7V379.7z M64,379.7H71v4.7H64L64,379.7z
		 M114.4,384.3v-4.7h8.2l-0.2,4.7H114.4z M130.4,300.3c-2.1,0-3.9,1.7-4,3.8l-0.8,15.5H80.9V289h111.7v30.7h-45.1l-0.8-15.5
		c-0.1-2.1-1.9-3.8-4-3.8H130.4z M150.6,379.7h7.1v4.7h-6.9L150.6,379.7z M193,379.7v4.7h-9.7v-4.7H193z M175.4,384.3h-9.7v-4.7h9.7
		V384.3z M201,384.3v-4.7h6.9v4.7H201z M207.9,371.7h-57.7l-1.5-29.3h43.9v11.3H174c-2.2,0-4,1.8-4,4s1.8,4,4,4h22.6
		C202.4,361.7,207.2,366.1,207.9,371.7z M196.6,202c-2.2,0-4,1.8-4,4v14.3h-40.9v-4.7h1.1c9.4,0,17.1-7.7,17.1-17.1v-25.3h44.3V202
		H196.6z M266.9,197.6c-1.9,2-4.2,3.3-6.8,3.9v-27.7c6,1.7,10.6,7,10.8,13.3C271.1,191.1,269.7,194.8,266.9,197.6z M427,155.5H268
		V50.7h159V155.5z"/>
	<path class="st6" d="M431,42.7H264c-2.2,0-4,1.8-4,4v118.9c-1.3-0.2-2.5-0.3-3.9-0.3h-79.4c6.2-8.4,9.9-18.8,9.9-30.1
		c0-28-22.8-50.7-50.7-50.7c-28,0-50.7,22.8-50.7,50.7c0,11.3,3.7,21.7,9.9,30.1H89c-9,0-17.8,3.6-24.2,10L6.5,233.6
		c-8.7,8.7-8.7,22.9,0,31.6c4.2,4.2,9.8,6.6,15.8,6.6c6,0,11.6-2.3,15.8-6.6l34.7-34.7v123.3C63.4,355,56,363.2,56,373.1v15.3
		c0,2.2,1.8,4,4,4h66.1c2.1,0,3.9-1.7,4-3.8l4.1-80.2h4.7l4.1,80.2c0.1,2.1,1.9,3.8,4,3.8h65c2.2,0,4-1.8,4-4v-15.3
		c0-9.3-6.6-17.1-15.4-19V210h56c1.2,0,2.3-0.1,3.4-0.3v178.6c0,2.2,1.8,4,4,4s4-1.8,4-4V206.9c1.7-1,3.3-2.3,4.7-3.7
		c4.3-4.4,6.5-10.2,6.2-16.3c-0.3-7.7-4.6-14.4-10.9-18.2v-5.2h163c2.2,0,4-1.8,4-4V46.7C435,44.5,433.2,42.7,431,42.7z M252.1,202
		h-30v-28.7h30V202z M151.4,207.7c-0.6-1.6-2-2.7-3.8-2.7h-23.3c-2.2,0-4,1.8-4,4v4.3h-16.1c-5.2,0-9.4-4.2-9.4-9.4v-30.7h7.8
		c8.9,7.8,20.6,12.6,33.4,12.6c9.4,0,18.3-2.6,25.8-7.1v19.8c0,5-4.1,9.1-9.1,9.1H151.4z M147.9,327.7h44.7v6.7h-44.3L147.9,327.7z
		 M192.6,266.3c-6.9-0.1-12.4-5.7-12.4-12.7c0-11.4-9.3-20.7-20.7-20.7h-7.8v-4.6h40.9L192.6,266.3L192.6,266.3z M143.6,213v28.7
		h-15.3V213H143.6z M35.3,256.8L15,236.4l22.3-22.3l20.3,20.3L35.3,256.8z M12.2,259.6C7.6,255,6.8,248,9.8,242.5L29.3,262
		c-2.1,1.2-4.5,1.8-6.9,1.8C18.5,263.8,14.9,262.3,12.2,259.6z M63.3,228.8L43,208.4L70.5,181c4.3-4.3,10.2-7,16.3-7.6v30.6
		c0,9.6,7.8,17.4,17.4,17.4h16.1v24.3c0,2.2,1.8,4,4,4h23.3c2.2,0,4-1.8,4-4V241h7.8c7,0,12.7,5.7,12.7,12.7
		c0,11.3,9.1,20.5,20.4,20.7v6.7H80.9v-42.7h1.6c6.3,0,11.3,5.1,11.3,11.3c0,10.7,8.7,19.3,19.3,19.3h11.5c1.7,4.7,6.1,8,11.3,8
		c6.6,0,12-5.4,12-12s-5.4-12-12-12c-5.2,0-9.6,3.3-11.3,8h-11.5c-6.2,0-11.3-5.1-11.3-11.3c0-10.7-8.7-19.3-19.3-19.3h-1.6v-9.4
		c0-1.6-1-3.1-2.5-3.7s-3.2-0.3-4.4,0.9L63.3,228.8z M124.8,334.3h-44v-6.7h44.3L124.8,334.3z M132,265c0-2.2,1.8-4,4-4s4,1.8,4,4
		s-1.8,4-4,4S132,267.2,132,265z M75.3,361.7h22.2c2.2,0,4-1.8,4-4s-1.8-4-4-4H80.9v-11.3h43.6l-1.5,29.3H64.1
		C64.7,366.1,69.5,361.7,75.3,361.7z M88.7,379.7v4.7H79v-4.7H88.7z M96.7,379.7h9.7v4.7h-9.7V379.7z M64,379.7H71v4.7H64L64,379.7z
		 M114.4,384.3v-4.7h8.2l-0.2,4.7H114.4z M130.4,300.3c-2.1,0-3.9,1.7-4,3.8l-0.8,15.5H80.9V289h111.7v30.7h-45.1l-0.8-15.5
		c-0.1-2.1-1.9-3.8-4-3.8H130.4z M150.6,379.7h7.1v4.7h-6.9L150.6,379.7z M193,379.7v4.7h-9.7v-4.7H193z M175.4,384.3h-9.7v-4.7h9.7
		V384.3z M201,384.3v-4.7h6.9v4.7H201z M207.9,371.7h-57.7l-1.5-29.3h43.9v11.3H174c-2.2,0-4,1.8-4,4s1.8,4,4,4h22.6
		C202.4,361.7,207.2,366.1,207.9,371.7z M196.6,202c-2.2,0-4,1.8-4,4v14.3h-40.9v-4.7h1.1c9.4,0,17.1-7.7,17.1-17.1v-25.3h44.3V202
		H196.6z M266.9,197.6c-1.9,2-4.2,3.3-6.8,3.9v-27.7c6,1.7,10.6,7,10.8,13.3C271.1,191.1,269.7,194.8,266.9,197.6z M427,155.5H268
		V50.7h159V155.5z"/>
	<path class="st1" d="M149.9,127.6c3.7,2.3,6,6.3,6,10.7c0,2.2,1.8,4,4,4h0c2.2,0,4-1.8,4-4c0-7.2-3.7-13.8-9.8-17.6
		c-1.9-1.2-4.3-0.6-5.5,1.3C147.4,124,148,126.5,149.9,127.6z"/>
	<path class="st1" d="M137.1,124.7c1.3,0,2.7,0.1,3.9,0.2c0.1,0,0.3,0,0.4,0c2,0,3.8-1.5,4-3.6c0.2-2.2-1.4-4.2-3.5-4.4
		c-1.6-0.2-3.2-0.3-4.8-0.3c-2.2,0-4,1.8-4,4S134.9,124.7,137.1,124.7z"/>
</g>
</svg>
